<?xml version="1.0" encoding="utf-8"?>
<!-- Generator: Adobe Illustrator 23.1.0, SVG Export Plug-In . SVG Version: 6.00 Build 0)  -->
<svg version="1.1" id="Layer_1" xmlns="http://www.w3.org/2000/svg" xmlns:xlink="http://www.w3.org/1999/xlink" x="0px" y="0px"
	 viewBox="0 0 378.7 94.8" style="enable-background:new 0 0 378.7 94.8;" xml:space="preserve">
<style type="text/css">
	.st0{fill:#202A35;}
	.st1{fill:#3FA9F5;}
</style>
<title>vstock</title>
<path class="st0" d="M29.2,59.9l14-41.3h15L37.7,74H20.5L0,18.6h15.1L29.2,59.9z"/>
<path class="st0" d="M144.9,23c4.1,3.5,6.8,8.3,7.6,13.6h-13.2c-0.4-2.5-1.7-4.7-3.6-6.4c-2.1-1.7-4.7-2.5-7.3-2.4
	c-2-0.1-4,0.5-5.6,1.7c-1.3,1.1-2.1,2.8-2,4.6c-0.1,1.4,0.5,2.8,1.6,3.7c1.2,1,2.5,1.7,4,2.2c1.6,0.5,3.9,1.2,6.9,1.9
	c3.5,0.7,6.9,1.7,10.3,3c2.6,1,5,2.7,6.8,4.9c1.9,2.2,2.9,5.3,2.9,9c0.1,4.5-2,8.8-5.6,11.5c-3.7,2.9-8.7,4.4-15,4.4
	c-7.2,0-13-1.6-17.3-4.8s-7-7.8-7.8-13.9H121c0.2,2.6,1.5,4.9,3.6,6.4c2.4,1.7,5.2,2.5,8.1,2.3c2,0.1,4-0.5,5.5-1.7
	c1.3-1.2,2-2.8,1.9-4.5c0.1-1.5-0.5-2.9-1.6-3.9c-1.2-1-2.6-1.8-4.1-2.3c-1.6-0.5-3.9-1.2-7-1.9c-3.4-0.7-6.8-1.7-10.1-2.8
	c-2.6-1-4.8-2.6-6.6-4.7c-1.8-2.1-2.8-5.1-2.8-8.8c-0.1-4.6,1.9-8.9,5.5-11.7c3.7-3,8.7-4.5,15.2-4.5
	C135.4,17.9,140.8,19.6,144.9,23z"/>
<path class="st0" d="M193.3,61.9V74h-7.4c-6.2,0-10.9-1.5-14.3-4.5c-3.3-3-5-8-5-15v-24H159V18.6h7.7V4.9h14.1v13.7h12.4v11.9h-12.4
	v24.2c0,2.7,0.5,4.5,1.6,5.6c1.1,1.1,2.9,1.6,5.4,1.6L193.3,61.9z"/>
<path class="st0" d="M243.6,21.3c4.3,2.2,7.8,5.7,10.1,9.9c2.5,4.6,3.8,9.9,3.7,15.1c0.1,5.3-1.1,10.5-3.7,15.1
	c-2.4,4.2-5.9,7.6-10.1,9.8c-9.2,4.6-19.9,4.6-29.1,0c-4.3-2.2-7.8-5.7-10.1-9.8c-2.6-4.6-3.8-9.8-3.7-15.1
	c-0.1-5.3,1.1-10.5,3.7-15.2c2.4-4.2,5.9-7.6,10.1-9.9C223.6,16.8,234.4,16.8,243.6,21.3z M219,34.3c-2.7,2.8-4.1,6.8-4.1,12
	s1.4,9.3,4.1,12c5.5,5.5,14.4,5.5,20,0c0,0,0,0,0,0c2.7-2.8,4.1-6.8,4.1-12c0-5.2-1.4-9.3-4.1-12C233.5,28.7,224.6,28.7,219,34.3
	C219,34.2,219,34.2,219,34.3z"/>
<path class="st0" d="M310.1,23.7c4.8,4,8.1,9.6,9,15.8h-14.9c-0.5-2.7-1.9-5.2-4.1-7c-2.3-1.8-5.2-2.7-8.1-2.5
	c-3.6-0.1-7,1.5-9.4,4.2c-2.5,2.8-3.8,6.8-3.8,12.1s1.3,9.4,3.8,12.2c2.3,2.7,5.8,4.2,9.4,4.2c2.9,0.1,5.8-0.8,8.1-2.6
	c2.2-1.8,3.6-4.2,4.1-7h14.9c-0.9,6.2-4.1,11.8-9,15.8c-4.8,3.9-10.7,5.8-17.9,5.8c-5,0.1-10-1.1-14.4-3.4c-4.2-2.3-7.6-5.7-9.8-9.8
	c-2.4-4.7-3.6-9.9-3.5-15.1c-0.1-5.2,1.1-10.4,3.5-15.1c2.2-4.2,5.6-7.6,9.8-9.9c4.4-2.3,9.4-3.5,14.4-3.4
	C299.4,17.9,305.4,19.8,310.1,23.7z"/>
<path class="st0" d="M361.5,74l-18.3-24.2V74h-14.1V0h14.1v41.6l18.2-23h16.7l-23.3,27.6L378.7,74H361.5z"/>
<image style="overflow:visible;opacity:0.1;enable-background:new    ;" width="24" height="24" xlink:href="36CE0D76.png"  transform="matrix(1 0 0 1 69.13 34.02)">
</image>
<circle class="st1" cx="81.1" cy="45" r="9"/>
</svg>
